inDegrees=no
num_controls=7
num_derivatives=13
num_iterations=102
num_multipliers=7
num_parameters=0
num_slacks=7
num_states=26
objective=0.450697
objective_accelerations=0.044488
objective_balance=0.007665
objective_effort=0.035269
objective_height=0.358344
objective_ligament=0.004931
solver_duration=1520.576876
status=Solve_Succeeded
success=true
DataType=double
version=3
OpenSimVersion=4.5
endheader
time	/jointset/ground_pelvis/pelvis_tilt/value	/jointset/ground_pelvis/pelvis_tx/value	/jointset/ground_pelvis/pelvis_ty/value	/jointset/hip_l/hip_flexion_l/value	/jointset/hip_l/hip_adduction_l/value	/jointset/hip_l/hip_rotation_l/value	/jointset/back/lumbar_extension/value	/jointset/patellofemoral_l/patellar_flexion_l/value	/jointset/knee_l/knee_flexion_l/value	/jointset/knee_l/knee_adduction_l/value	/jointset/knee_l/knee_rotation_l/value	/jointset/ankle_l/ankle_angle_l/value	/jointset/subtalar_l/subtalar_angle_l/value	/jointset/ground_pelvis/pelvis_tilt/speed	/jointset/ground_pelvis/pelvis_tx/speed	/jointset/ground_pelvis/pelvis_ty/speed	/jointset/hip_l/hip_flexion_l/speed	/jointset/hip_l/hip_adduction_l/speed	/jointset/hip_l/hip_rotation_l/speed	/jointset/back/lumbar_extension/speed	/jointset/patellofemoral_l/patellar_flexion_l/speed	/jointset/knee_l/knee_flexion_l/speed	/jointset/knee_l/knee_adduction_l/speed	/jointset/knee_l/knee_rotation_l/speed	/jointset/ankle_l/ankle_angle_l/speed	/jointset/subtalar_l/subtalar_angle_l/speed	/forceset/tau_hip_flexion_l	/forceset/tau_hip_adduction_l	/forceset/tau_hip_rotation_l	/forceset/tau_knee_flexion_l	/forceset/tau_ankle_angle_l	/forceset/tau_subtalar_angle_l	/forceset/tau_lumbar_extension	lambda_cid13_p0	lambda_cid13_p1	lambda_cid13_p2	lambda_cid13_p3	lambda_cid13_p4	lambda_cid13_p5	lambda_cid14_p0	/jointset/ground_pelvis/pelvis_tilt/accel	/jointset/ground_pelvis/pelvis_tx/accel	/jointset/ground_pelvis/pelvis_ty/accel	/jointset/hip_l/hip_flexion_l/accel	/jointset/hip_l/hip_adduction_l/accel	/jointset/hip_l/hip_rotation_l/accel	/jointset/back/lumbar_extension/accel	/jointset/patellofemoral_l/patellar_flexion_l/accel	/jointset/knee_l/knee_flexion_l/accel	/jointset/knee_l/knee_adduction_l/accel	/jointset/knee_l/knee_rotation_l/accel	/jointset/ankle_l/ankle_angle_l/accel	/jointset/subtalar_l/subtalar_angle_l/accel	gamma_cid13_p0	gamma_cid13_p1	gamma_cid13_p2	gamma_cid13_p3	gamma_cid13_p4	gamma_cid13_p5	gamma_cid14_p0
1.5	-0.4467202551734643	-0.07452763829543549	0.7737743366727189	1.223246325106192	-0.3090745227864874	-0.06918906632873385	-0.3420445282543247	0.6256157314396492	0.6256157314396532	-0.173615215535796	0.1742420559948766	0.0105229644135855	-0.05295678633717766	0.7346188484816755	0.2710763121941949	0.4410432632274713	-2.214605960552427	0.04781124754746605	-0.5475716854356985	0.5691806959227143	-1.577097660493893	-1.577097660493886	0.003108449869048389	0.001677313437121309	-0.1759436783725405	0.0308014462130652	-0.2488509677023321	0.01802032969753137	-0.01964339296858596	-0.1882963894609983	0.1437551422351865	0.0444897712862762	0.2239219595700044	7.01628469092283	-23.42086698652157	6.610262058014858	-4.796135603546544	-612.1795195433211	-61.45196618728195	-31.80761496102015	0.5735662287003753	0.6317360147863682	-0.2453134215804142	-1.446172076521483	0.4976320006134168	-0.2222297474428697	1.645890781480196	-0.9560021483959534	-0.9560021483959573	0.0134513488102854	-0.05834647476737041	-0.007307838407526461	0.4889635279958604	2.703595296870823e-08	8.888257964971517e-07	-2.220438784391693e-07	1.16884504559855e-07	1.628061056863565e-07	3.292825768372281e-08	1.406196704539252e-07
1.51	-0.4393457946047122	-0.07178552338036377	0.7781716734231489	1.201030169627113	-0.3085721702238928	-0.07467667507303438	-0.3362717908810947	0.6097992758370937	0.6097992758370969	-0.1735840670507112	0.1742577728811402	0.008763395435441896	-0.05262498021340095	0.7401737792070517	0.277315102297937	0.4383382470923403	-2.228314569536707	0.05267982847726406	-0.5499204249388863	0.5852895860877964	-1.585956736216011	-1.585956736216009	0.003170614732961849	0.001497141627058828	-0.1759230914353237	0.03558375991922246	-0.2410089990344165	0.01714437450131595	-0.01959025385157597	-0.1871911089887126	0.1436280204707761	0.04375436044397168	0.2178603153094163	7.189058355294051	-23.23681333990156	6.700949934522163	-4.74153554834233	-608.1465840929347	-61.75627398942176	-32.6264584316803	0.5315428994267877	0.6152416532863181	-0.2959381778331075	-1.286608714026488	0.4844498074958252	-0.2366033599926949	1.58180923870067	-0.8153798049175752	-0.8153798049185066	0.01016515924372876	0.006897358854026902	0.01380459310070609	0.4763336192489218	1.924032216345117e-08	9.339723545072696e-07	-1.965898678479702e-07	1.269381162291612e-07	1.658927694425291e-07	4.944853854156523e-08	1.40510935861913e-07
1.52	-0.4319187674477122	-0.068981962335231	0.7825393915185568	1.178686247377262	-0.3080205361183337	-0.08018685267401393	-0.3303402803852782	0.5939013255731571	0.5939013255731599	-0.1735507836961752	0.1742726380278992	0.007005444853333349	-0.05224465728709801	0.7451321661312488	0.2833655382064064	0.4351195322230629	-2.240159314706791	0.05766755614034894	-0.5520854567715122	0.6009353204400161	-1.593396592770041	-1.593396592770047	0.003535423759303579	0.001506965536199589	-0.1756199991655298	0.04050480671831026	-0.2331670303665009	0.0162684193051006	-0.01953711473456582	-0.186085828516427	0.1435008987063658	0.04301894960166726	0.2117986710488281	7.353643886082255	-23.05311309015988	6.793735391644325	-4.668476329912333	-604.2412640716144	-62.10758065140887	-33.42182101728864	0.4542574684644689	0.5940651757318074	-0.3480531684096888	-1.073399313681864	0.5214613472707902	-0.1854882133304704	1.553259618907684	-0.6721583147783502	-0.6721583147784091	0.07398018129594028	-0.02034733092525157	0.0491932281079093	0.5167101465819691	1.119919220078672e-08	9.809830859562453e-07	-1.826828195269403e-07	1.358697144988043e-07	1.686171329840164e-07	6.606809920879409e-08	1.41309171038367e-07
1.53	-0.4244451115557618	-0.06611886929826523	0.7868723979212848	1.15623305331103	-0.3074188542305116	-0.08571689162963621	-0.3242546823455467	0.5779359118479603	0.5779359118479631	-0.1735135483378634	0.1742880498511659	0.005251830172939908	-0.05181487610994751	0.7494991966325443	0.2892179645902831	0.4313999358927778	-2.250177917061758	0.06264757419917287	-0.553793829343023	0.6161040952030908	-1.599466034314154	-1.599466034314158	0.00384513638193335	0.00154145258221714	-0.1750668838850761	0.04543135658742421	-0.2253518363305899	0.01522304857803647	-0.01949779295357099	-0.1849454600031543	0.143389705583126	0.04218635552896158	0.2057345976413559	7.517572718512715	-22.82833427124959	6.881391705164532	-4.588221383473625	-600.3914087497445	-62.39104049688924	-34.19026674925524	0.4129603076430296	0.5755952307490715	-0.3961502880074533	-0.9208443301163336	0.4829641850004085	-0.1440816805439506	1.486657559527082	-0.5413481838152226	-0.5413481838149032	-0.0003332645010586735	0.01034754733428968	0.06378599232949025	0.4774721327296856	2.897219383376935e-09	1.029974501684008e-06	-1.810444186179651e-07	1.436091735313052e-07	1.709565525474005e-07	8.279314467349601e-08	1.430710615938165e-07
1.54	-0.4169307784654623	-0.06319829922525394	0.791165760876176	1.133688722494506	-0.3067680337321387	-0.09126012829127005	-0.3180198023272803	0.561916401485405	0.561916401485408	-0.1734751758667747	0.1743028067098866	0.003504829708214087	-0.05133646048897514	0.7532676058010771	0.2948609454155053	0.4271908426557114	-2.258386664765215	0.06749527825048536	-0.5547249979738363	0.6307917161469544	-1.604215920241765	-1.604215920241766	0.003762846314660952	0.001375972626996614	-0.1742971560320069	0.0502316954826813	-0.2175366422946785	0.01417767785097243	-0.01945847117257608	-0.1838050914898816	0.1432785124598856	0.04135376145625601	0.1996705242338838	7.672903541361136	-22.60361222770697	6.970841552833077	-4.485722967546158	-596.6732544239704	-62.72143850630937	-34.92842762173056	0.3345332019119337	0.552176064000942	-0.4459525497659185	-0.7114283833798328	0.4949985457685044	-0.03004742519099764	1.457028855065461	-0.4082471914777817	-0.4082471914777843	-0.004420356684493542	-0.06034073117280007	0.09251574263098941	0.4914679518105987	-3.503784816003838e-09	1.0654943696276e-06	-1.794556863353012e-07	1.488802071202865e-07	1.747024707631353e-07	9.731934491676741e-08	1.439825590049877e-07
1.55	-0.4093817744568437	-0.06022241107802131	0.7954146456364395	1.111071424254363	-0.3060692062249614	-0.09680941331568708	-0.3116405795855549	0.5458561123891547	0.5458561123891537	-0.1734388571789179	0.1743152490120016	0.001766683858064912	-0.05081045730925399	0.7564288306320305	0.3002746319220037	0.4225099036145303	-2.264757171470622	0.07226796393788744	-0.5550574780845728	0.6449615317985746	-1.60760613020721	-1.607606130207208	0.003506745717298524	0.001111040020860588	-0.1732878072161817	0.05497003008054973	-0.2097089936169818	0.0130384399314674	-0.01946569168462779	-0.1826688769589199	0.1432167445138699	0.040415229305016	0.1935606327459987	7.835354276206495	-22.33573677769316	7.055249230448202	-4.371997377793675	-593.0455936180002	-62.99139365659632	-35.63290178325229	0.2912677015557034	0.5296876587229633	-0.4905588386075764	-0.552482226887272	0.4679358060121981	-0.02351492747850289	1.3832628602774	-0.2690713541735067	-0.2690713541733583	-0.03514463517170215	-0.009692296995950013	0.1117820068337915	0.4650286719824865	-7.714542564177388e-09	1.085492671645954e-06	-1.779241809481698e-07	1.513071853069521e-07	1.800689200348393e-07	1.093120930570864e-07	1.439142556194907e-07
1.56	-0.4018042880843418	-0.05719364152277395	0.7996144421548286	1.088399896864612	-0.3053227454157529	-0.1023597564659042	-0.3051223976992998	0.5297689885022305	0.529768988502226	-0.1734048874418167	0.1743250174337228	3.995900722908302e-05	-0.05023706829191266	0.7589640785777303	0.3054372270184497	0.4173731942808147	-2.269232494686673	0.07702193865671568	-0.5549366231338506	0.6585835450528785	-1.609582878376481	-1.609582878376481	0.003293056163521751	0.0008411965482562735	-0.1720129561693363	0.05970886300671905	-0.2018813449392852	0.01189920201196219	-0.01947291219667995	-0.181532662427958	0.1431549765678541	0.03947669715377581	0.1874507412581135	7.988778603529807	-22.06755391052289	7.14106204716563	-4.233218879035479	-589.55443587841	-63.30792466331071	-36.30046257276977	0.2093378248612078	0.50195778199047	-0.5371066082728084	-0.3323916855084911	0.4912563520537417	0.06061958710074905	1.347468375602164	-0.1255548322429886	-0.1255548322432147	0.004061852032638234	-0.06132290446550245	0.1456161888350208	0.4915676174707779	-6.864078556183109e-09	1.101177037767089e-06	-1.95793618051485e-07	1.475943969701611e-07	1.920025100468377e-07	1.21888683501842e-07	1.459750865049915e-07
1.57	-0.3942045957055817	-0.05411455907045579	0.8037606595069201	1.065692965306349	-0.3045291122721361	-0.1079060678182261	-0.2984708996946154	0.5136689067552788	0.5136689067552773	-0.1733735768060412	0.1743316161239595	-0.001672853478397476	-0.04961658843213702	0.7608668160827219	0.3103314867085391	0.4117992272299382	-2.271839600110218	0.08167716926919516	-0.5542014749098253	0.6716106927869653	-1.61020905211558	-1.610209052115578	0.002918342664382595	0.0004395836722390007	-0.1705155729878176	0.06436128119847928	-0.1939943638552031	0.01055993724085299	-0.01952438300501911	-0.1805047546638836	0.1432721689602927	0.03843401355363679	0.1812682807929872	8.189947666916972	-21.76358198464063	7.222407407693373	-4.102118472383888	-586.1635599138958	-63.58135653685325	-36.92868110913903	0.1646092208757492	0.4760194821138723	-0.5781543411812543	-0.1777293771092152	0.4484045252955691	0.09875202094897215	1.264533507755127	0.002483506761526191	0.002483506761933037	-0.06566919515374331	-0.03531266973296435	0.1569001891377425	0.4480604406397393	3.129126470208928e-10	1.111468984016699e-06	-2.37914233267858e-07	1.362069004790493e-07	2.12145025984204e-07	1.351950768271433e-07	1.506973352292397e-07
1.58	-0.3865891024502601	-0.05098796213731758	0.8078490146709657	1.042969390812585	-0.3036897772005042	-0.1134412697721286	-0.2916922911055013	0.4975692897012369	0.4975692897012387	-0.1733474995541104	0.1743330522473233	-0.003369671970943366	-0.04895038808632156	0.7621242538900181	0.3149401231824572	0.4058007566716142	-2.272561081787031	0.08616232425969543	-0.5527147434499773	0.6840056619387795	-1.609489939794486	-1.609489939794481	0.00224637939458139	-0.000191316826303237	-0.1688141575532012	0.06885296021468329	-0.1861073827711215	0.009220672469743648	-0.01957585381335883	-0.1794768468998091	0.1433893613527285	0.0373913299534976	0.1750858203278606	8.383941079089459	-21.45924010852345	7.304706447112371	-3.95497355830903	-582.8850727493534	-63.89961900129245	-37.51817152041695	0.08027788532212095	0.4448331387561791	-0.6220073097623084	0.04473306383783726	0.4572412276579014	0.2109362342653463	1.221032659147652	0.1435023797953883	0.143502379795388	-0.05538810209977096	-0.1071804289704942	0.1864226394545566	0.4594197823595371	7.640673148849345e-09	1.111916192448444e-06	-2.733488801859652e-07	1.238282759205026e-07	2.343127395531047e-07	1.459970002538192e-07	1.537955522143031e-07
